<svg xmlns="http://www.w3.org/2000/svg" width="103.18" height="97.33" xmlns:v="https://vecta.io/nano"><style>.A{isolation:isolate}</style><g class="A"><g><g transform="matrix(1.5384 0 0 1.5384 -.0725 -511.9188)"><g fill="#d40000"><path d="M16.47 357.29c0 2.37-2.4 3.53-4.66 5.15h4.83v2.69H7.53v-.77c.06-1.13.62-2.17 1.53-2.83 2.48-2.21 4.26-3.1 4.26-4.13 0-.61-.39-1.16-1.36-1.16-.41-.04-.82.1-1.12.39s-.46.69-.43 1.1v.3H7.58c-.01-.12-.01-.23 0-.35 0-2.24 1.56-3.71 4.7-3.71 2.57.06 4.19 1.33 4.19 3.32zm7.43-3.26c-.24 1.74-2.48 5-4 6.56h3.15v-2.28a13.2 13.2 0 0 0 1.68-3.28h1.35v5.51h1.56v2.33h-1.56v2.25h-3v-2.25h-5.35v-2.37a24.9 24.9 0 0 0 3-6.52z"/></g><path d="M67.08 392.63l-1.79-10.39c-.65-3.77-3.15-6.97-6.65-8.52l-6.72-2.86H36.64l-6.72 2.86c-3.5 1.55-6 4.75-6.65 8.52l-1.82 10.39c-.14.85.1 1.71.66 2.36s1.37 1.03 2.22 1.04H64.2c.86 0 1.67-.38 2.22-1.04s.79-1.52.66-2.36z" fill="#505050"/><circle cx="-221.99" cy="284.58" r="11.57" transform="rotate(315)" fill="#ffb412"/><g fill="#505050"><path d="M34.03 354.03a13.15 13.15 0 0 1 1.7-7.49c1.67-2.57 4.55-3.88 8.53-3.88s6.87 1.31 8.54 3.88a13.24 13.24 0 0 1 1.7 7.49h1.33a14.71 14.71 0 0 0-1.94-8.44c-1.92-3-5.17-4.52-9.63-4.52s-7.7 1.54-9.63 4.52a14.7 14.7 0 0 0-1.93 8.44z"/><path d="M33.07 352.44a2.1 2.1 0 0 0-.92-.21c-1.56 0-2.83 1.75-2.83 3.92s1.32 3.88 2.83 3.88a2.1 2.1 0 0 0 .92-.21z"/><path d="M34.1 351.44a1.6 1.6 0 0 0-.79-.21h0a1.68 1.68 0 0 0-1.67 1.68v6.8a1.68 1.68 0 0 0 1.68 1.68h0a1.6 1.6 0 0 0 .79-.21zm21.73 8.42h-.75c0 .28-.11 6.54-7.82 7.18a.81.81 0 0 0-.67-.37h-2.95a.82.82 0 0 0-.81.82h0a.81.81 0 0 0 .81.81h3a.82.82 0 0 0 .76-.52c8.31-.75 8.43-7.84 8.43-7.92z"/><path d="M55.46 352.44a2.1 2.1 0 0 1 .92-.21c1.56 0 2.83 1.75 2.83 3.92s-1.27 3.88-2.83 3.88a2.1 2.1 0 0 1-.92-.21z"/><path d="M54.43 351.44a1.6 1.6 0 0 1 .79-.21h0a1.68 1.68 0 0 1 1.68 1.68v6.8a1.68 1.68 0 0 1-1.68 1.68h0a1.6 1.6 0 0 1-.79-.21z"/></g><path d="M41.1 339.61l-6.59-6.85-.74 4.6c-13.75-3.79-28.05 3.93-32.43 17.5s2.69 28.19 16.06 33.17l1.71-5.44c-9.06-3.5-15.08-9.46-15.08-19.74 0-13.36 9.28-24 22.63-24a24 24 0 0 1 6.71 1l-.73 4.18z" fill="#53c2c9"/></g></g></g></svg>